<?xml version="1.0" encoding="UTF-8"?>
<svg width="91px" height="70px" viewBox="0 0 91 70" version="1.1" xmlns="http://www.w3.org/2000/svg" xmlns:xlink="http://www.w3.org/1999/xlink">
    <!-- Generator: Sketch 50.2 (55047) - http://www.bohemiancoding.com/sketch -->
    <title>Combined Shape</title>
    <desc>Created with Sketch.</desc>
    <defs></defs>
    <g id="Page-1" stroke="none" stroke-width="1" fill="none" fill-rule="evenodd">
        <g id="Group" fill="#FFFFFF" fill-rule="nonzero">
            <path d="M73.395,26.6502686 C70.8997874,27.3042251 70.8997874,27.3042251 69.6052246,27.7956543 C69.6052246,27.7956543 64.8570557,23.1612549 60.6976318,22.5003662 C55.7516962,21.7145091 49.2350613,21.6701692 43.677002,28.3312988 C42.6602783,29.5498047 41.3690252,31.7730639 40.8955078,33.6782227 C36.9014058,49.7481689 50.4418177,64.9921912 50.1228027,64.6168213 C47.5458027,67.0008213 47.61,66.784 44.365,69.183 C41.336,68.213 38.513,67.166 35.886,66.062 C2.767,52.19 0.266,29.376 0.266,29.376 C-1.266,20.051 3.965,11.179 12.367,7.766 C13.719,7.217 15.141,6.807 16.634,6.565 C23.895,5.371 30.877,8.282 35.223,13.596 C36.709,9.653 39.426,6.255 42.978,3.937 C44.023,3.253 45.139,2.658 46.325,2.178 C47.668,1.632 49.091,1.227 50.59,0.984 C61.402,-0.799 71.612,6.531 73.395,17.351 C73.395,17.351 74.3120117,22.4144287 73.395,26.6502686 Z M59.5438416,26.3247939 C63.5175781,27.269043 65.9917504,29.6071658 68.6230469,32.78125 C69.8213484,32.0391574 74.0532176,29.6071658 79.5375926,30.4467033 C89.1399229,31.9166094 95.8729291,44.4376472 83.6373522,56.6696183 C78.5607296,62.8198587 67.5571765,67.2961544 65.9917504,67.8299389 C64.2948436,68.4097436 62.4772145,68.9473571 60.5320007,69.4271939 C39.7852027,51.7871153 44.5181603,35.6296785 44.5181603,35.6296785 C46.1026254,28.9090997 52.8340162,24.7303888 59.5438416,26.3247939 Z" id="Combined-Shape"></path>
        </g>
    </g>
</svg>